# xmcd
#
# Track frame offsets: 
#        150
#        19257
#        40868
#        56842
#        77109
#        91557
#        108095
#        123607
#        136708
#
# Disc length: 2060 seconds
#
# Revision: 0
# Processed by: cddbd v1.5.1PL0 Copyright (c) Steve Scherf et al.
# Submitted via: ExactAudioCopy v0.95a5
#
DISCID=69080a09
DTITLE=Mazarati - Mazarati III
DYEAR=1900
DGENRE=
TTITLE0=Little Mazarati
TTITLE1=This Is Groovy
TTITLE2=Aggravation
TTITLE3=Infatuation
TTITLE4=Come Together
TTITLE5=Satisfaction
TTITLE6=Listen To Me
TTITLE7=Candy Sweet
TTITLE8=Kiss
EXTD=
EXTT0=
EXTT1=
EXTT2=
EXTT3=
EXTT4=
EXTT5=
EXTT6=
EXTT7=
EXTT8=
PLAYORDER=
